<svg width="64" height="36" viewBox="0 0 64 36" fill="none" xmlns="http://www.w3.org/2000/svg">
<path d="M22.6828 2.65991V2.65991L10.6196 7.87459C6.27909 9.76075 3.6297 13.9214 3.23511 18.4704C3.23511 18.4704 3.23511 18.4704 3.23511 18.4149L7.46286 20.0237L11.8597 21.6879L16.4257 19.6908C22.8519 16.9725 25.6704 9.31695 22.6828 2.65991Z" fill="#618ACC"/>
<path d="M4.58781 25.4603C5.48973 27.4019 7.06809 29.0107 9.26653 29.8428L17.6093 33.0604V33.0604C19.3568 28.6778 17.1583 23.796 12.7051 22.0763L11.9159 21.7434L4.4187 24.961C4.47507 25.1274 4.53144 25.2938 4.58781 25.4603Z" fill="#B7CEEC"/>
<path d="M7.46277 20.0236L3.23501 18.4148C3.23501 18.4148 3.23501 18.4148 3.23501 18.4703C3.12227 19.136 3.17864 19.9681 3.23501 20.7448C3.29138 21.244 3.34775 21.7433 3.46049 22.2426C3.6296 23.1857 3.96782 24.1288 4.30604 24.9054V24.9054L11.8033 21.6878L7.46277 20.0236Z" fill="#2E55A5"/>
<path fill-rule="evenodd" clip-rule="evenodd" d="M32.0376 16.9956C33.5671 16.9956 34.9874 17.3302 36.1891 17.9995C37.4455 18.6688 38.4288 19.6727 39.1389 20.8998C39.849 22.1268 40.2314 23.5211 40.2314 25.0828C40.286 26.5887 39.9036 28.0388 39.2481 29.2658C38.5926 30.4928 37.6094 31.4967 36.4076 32.2218C35.2059 32.9468 33.8402 33.3373 32.3107 33.3373C30.7812 33.3373 29.4156 33.0026 28.1592 32.3333C26.9028 31.664 25.9196 30.6601 25.2094 29.4331C24.4993 28.2061 24.1169 26.8118 24.1169 25.2501C24.1169 23.7442 24.4447 22.2941 25.1002 21.0671C25.7557 19.8401 26.739 18.8361 27.9407 18.1111C29.1425 17.386 30.5081 16.9956 32.0376 16.9956ZM35.7521 27.481C36.0799 26.8118 36.2438 26.0309 36.2438 25.1385C36.2438 24.2462 36.0799 23.4653 35.6975 22.7961C35.3697 22.1268 34.8235 21.6248 34.2226 21.2344C33.6217 20.844 32.9116 20.6767 32.1469 20.6767C31.3821 20.6767 30.672 20.8998 30.0711 21.2902C29.4702 21.6806 28.9786 22.2383 28.6508 22.9076C28.3231 23.5769 28.1592 24.3577 28.1592 25.2501C28.1592 26.1425 28.3231 26.9233 28.7055 27.5926C29.0332 28.2619 29.5795 28.7638 30.1803 29.1542C30.7812 29.5447 31.4914 29.712 32.2561 29.712C33.0209 29.712 33.731 29.4889 34.3319 29.0985C34.9327 28.7081 35.4244 28.1503 35.7521 27.481Z" fill="white"/>
<path d="M46.9502 23.4097L43.2903 17.1073L39.0295 17.163L44.8744 27.258L44.9291 32.947L48.9167 32.8912L48.8075 27.258L54.3792 16.9399L50.4462 16.9957L46.9502 23.4097Z" fill="white"/>
<path d="M60.1149 27.4253L60.6612 16.8284L56.1819 16.8841L57.0013 27.4811L60.1149 27.4253Z" fill="white"/>
<path d="M60.2243 28.9311C59.7873 28.4849 59.241 28.3176 58.5855 28.3176C57.93 28.3176 57.3838 28.5407 56.9468 28.9869C56.5098 29.4331 56.2913 29.9908 56.3459 30.6043C56.3459 31.2179 56.5644 31.7756 57.0014 32.2218C57.4384 32.668 57.9847 32.8911 58.6402 32.8911C59.2957 32.8911 59.8419 32.668 60.2243 32.166C60.6613 31.7198 60.8798 31.1621 60.8798 30.4928C60.8798 29.9351 60.6613 29.3773 60.2243 28.9311Z" fill="white"/>
</svg>
